<!DOCTYPE svg PUBLIC "-//W3C//DTD SVG 1.1//EN" "http://www.w3.org/Graphics/SVG/1.1/DTD/svg11.dtd">
<!-- Uploaded to: SVG Repo, www.svgrepo.com, Transformed by: SVG Repo Mixer Tools -->
<svg height="800px" width="800px" version="1.1" id="_x32_" xmlns="http://www.w3.org/2000/svg" xmlns:xlink="http://www.w3.org/1999/xlink" viewBox="-51.2 -51.2 614.40 614.40" xml:space="preserve" fill="#d6c099" stroke="#d6c099" transform="rotate(0)">
<g id="SVGRepo_bgCarrier" stroke-width="0"/>
<g id="SVGRepo_tracerCarrier" stroke-linecap="round" stroke-linejoin="round" stroke="#CCCCCC" stroke-width="50.176"> <style type="text/css"> .st0{fill:#978407;} </style> <g> <path class="st0" d="M472.464,216.464h-99.822c-17.45,0-31.577-14.14-31.577-31.577c0-17.444,14.126-31.583,31.577-31.583h36.687 c21.829,0,39.536-17.702,39.536-39.536c0-21.835-17.708-39.537-39.536-39.537H221.822c-21.848,0-39.543,17.702-39.543,39.537 c0,21.835,17.695,39.536,39.543,39.536h36.674c17.444,0,31.583,14.139,31.583,31.583c0,17.437-14.139,31.577-31.583,31.577H39.536 C17.708,216.464,0,234.171,0,256s17.708,39.536,39.536,39.536h85.676c17.438,0,31.577,14.14,31.577,31.577 c0,17.444-14.139,31.583-31.577,31.583H89.656c-21.842,0-39.543,17.702-39.543,39.537c0,21.829,17.701,39.536,39.543,39.536 h276.039c21.835,0,39.536-17.708,39.536-39.536c0-21.836-17.701-39.537-39.536-39.537H239.352 c-17.444,0-31.589-14.139-31.589-31.583c0-17.437,14.145-31.577,31.589-31.577h233.112C494.292,295.536,512,277.829,512,256 S494.292,216.464,472.464,216.464z"/> </g> </g>
<g id="SVGRepo_iconCarrier"> <style type="text/css"> .st0{fill:#978407;} </style> <g> <path class="st0" d="M472.464,216.464h-99.822c-17.45,0-31.577-14.14-31.577-31.577c0-17.444,14.126-31.583,31.577-31.583h36.687 c21.829,0,39.536-17.702,39.536-39.536c0-21.835-17.708-39.537-39.536-39.537H221.822c-21.848,0-39.543,17.702-39.543,39.537 c0,21.835,17.695,39.536,39.543,39.536h36.674c17.444,0,31.583,14.139,31.583,31.583c0,17.437-14.139,31.577-31.583,31.577H39.536 C17.708,216.464,0,234.171,0,256s17.708,39.536,39.536,39.536h85.676c17.438,0,31.577,14.14,31.577,31.577 c0,17.444-14.139,31.583-31.577,31.583H89.656c-21.842,0-39.543,17.702-39.543,39.537c0,21.829,17.701,39.536,39.543,39.536 h276.039c21.835,0,39.536-17.708,39.536-39.536c0-21.836-17.701-39.537-39.536-39.537H239.352 c-17.444,0-31.589-14.139-31.589-31.583c0-17.437,14.145-31.577,31.589-31.577h233.112C494.292,295.536,512,277.829,512,256 S494.292,216.464,472.464,216.464z"/> </g> </g>
</svg>