<?xml version="1.0" standalone="no"?>
<!DOCTYPE svg PUBLIC "-//W3C//DTD SVG 20010904//EN"
 "http://www.w3.org/TR/2001/REC-SVG-20010904/DTD/svg10.dtd">
<svg version="1.0" xmlns="http://www.w3.org/2000/svg"
 width="200.000000pt" height="200.000000pt" viewBox="0 0 200.000000 200.000000"
 preserveAspectRatio="xMidYMid meet">

<g transform="translate(0.000000,200.000000) scale(0.100000,-0.100000)"
fill="#000000" stroke="none">
<path d="M720 1855 l0 -45 -135 0 -135 0 0 -65 c0 -63 1 -65 25 -65 20 0 25
-5 25 -25 0 -25 1 -25 85 -25 l85 0 2 -307 3 -308 23 -3 c22 -3 22 -6 22 -138
l0 -135 63 3 62 3 3 113 3 112 197 -2 197 -3 3 -113 3 -113 62 3 62 3 3 223
c2 211 3 222 21 222 13 0 21 -8 23 -22 2 -15 10 -23 23 -23 18 0 20 7 20 65 0
58 -2 65 -20 65 -13 0 -21 8 -23 23 -2 14 -10 22 -23 22 -12 0 -19 7 -19 20 0
19 -7 20 -265 20 l-265 0 0 225 c0 222 0 225 -21 225 -12 0 -23 8 -26 20 -3
11 -14 20 -24 20 -14 0 -19 7 -19 25 0 18 -5 25 -20 25 -17 0 -20 -7 -20 -45z
m0 -110 c0 -23 -4 -25 -45 -25 -41 0 -45 2 -45 25 0 23 4 25 45 25 41 0 45 -2
45 -25z"/>
<path d="M120 375 l0 -195 35 0 35 0 0 75 0 75 48 0 c26 0 53 5 60 12 16 16
16 200 0 216 -7 7 -44 12 -95 12 l-83 0 0 -195z m128 73 c-3 -49 -5 -53 -30
-56 -28 -3 -28 -2 -28 52 0 56 0 56 31 56 l30 0 -3 -52z"/>
<path d="M355 375 l0 -195 91 0 c87 0 92 1 98 23 12 45 9 47 -60 47 l-65 0 3
48 c3 44 4 47 31 45 25 -2 27 1 27 36 0 36 -1 37 -31 33 l-30 -4 3 48 3 49 63
0 c63 0 66 2 56 43 -6 21 -11 22 -98 22 l-91 0 0 -195z"/>
<path d="M585 375 l0 -195 32 0 32 0 3 113 3 112 44 -113 c44 -112 44 -112 78
-112 l33 0 0 195 0 195 -35 0 -35 0 -1 -112 0 -113 -44 110 c-42 107 -44 110
-77 113 l-33 3 0 -196z"/>
<path d="M850 551 c0 -11 -3 -26 -6 -35 -5 -13 2 -16 35 -16 l41 0 0 -160 0
-160 35 0 35 0 0 160 0 160 41 0 c33 0 40 3 35 16 -3 9 -6 24 -6 35 0 18 -8
19 -105 19 -97 0 -105 -1 -105 -19z"/>
<path d="M1100 375 l0 -195 35 0 35 0 0 75 c0 58 3 75 14 75 14 0 39 -79 39
-126 0 -21 4 -24 39 -24 36 0 39 2 32 23 -4 12 -12 45 -19 73 -10 45 -10 54 6
72 13 17 17 41 17 101 0 113 -7 121 -114 121 l-84 0 0 -195z m128 73 c-3 -49
-5 -53 -30 -56 -28 -3 -28 -2 -28 52 0 56 0 56 31 56 l30 0 -3 -52z"/>
<path d="M1410 550 c0 -11 -18 -97 -40 -191 -22 -95 -40 -174 -40 -175 0 -2
15 -4 34 -4 31 0 34 3 40 40 6 39 7 40 46 40 39 0 40 -1 46 -40 6 -37 9 -40
40 -40 19 0 34 2 34 5 0 2 -18 82 -40 176 -22 95 -40 180 -40 190 0 15 -8 19
-40 19 -33 0 -40 -3 -40 -20z m59 -192 c1 -22 -3 -28 -20 -28 -20 0 -21 4 -14
48 4 26 10 52 13 57 7 11 19 -34 21 -77z"/>
<path d="M1608 375 l3 -196 92 3 92 3 3 33 3 32 -66 0 -66 0 3 160 3 160 -35
0 -35 0 3 -195z"/>
</g>
</svg>
